<svg version="1.1" xmlns="http://www.w3.org/2000/svg" xmlns:xlink="http://www.w3.org/1999/xlink"
     preserveAspectRatio="xMidYMid meet" viewBox="0 0 16 16" width="16" height="16" color-interpolation="linearRGB">

    <!--top pins-->
    <path fill='#6E6E6E' d="M3.5 2.44L3.84 2.44L4.19 2.44L4.19 1.22L4.19 0L3.84 0L3.5 0L3.5 1.22L3.5 2.44Z"></path>
    <path fill='#6E6E6E' d="M6.94 2.44L7.28 2.44L7.63 2.44L7.63 1.22L7.63 0L7.28 0L6.94 0L6.94 1.22L6.94 2.44Z"></path>
    <path fill='#6E6E6E' d="M10.44 2.44L10.78 2.44L11.13 2.44L11.13 1.22L11.13 0L10.78 0L10.44 0L10.44 1.22L10.44 2.44Z"></path>
    <path fill='#6E6E6E' d="M5.19 2.44L5.53 2.44L5.88 2.44L5.88 1.72L5.88 1L5.53 1L5.19 1L5.19 1.72L5.19 2.44Z"></path>
    <path fill='#6E6E6E' d="M8.69 2.44L9.03 2.44L9.38 2.44L9.38 1.72L9.38 1L9.03 1L8.69 1L8.69 1.72L8.69 2.44Z"></path>
    <path fill='#6E6E6E' d="M12.19 2.44L12.53 2.44L12.88 2.44L12.88 1.72L12.88 1L12.53 1L12.19 1L12.19 1.72L12.19 2.44Z"></path>

    <!--bottom pins-->
    <path fill='#6E6E6E' d="M3.13 15L3.47 15L3.81 15L3.81 14.31L3.81 13.63L3.47 13.63L3.13 13.63L3.13 14.31L3.13 15Z"></path>
    <path fill='#6E6E6E' d="M4.81 16L5.16 16L5.5 16L5.5 14.81L5.5 13.63L5.16 13.63L4.81 13.63L4.81 14.81L4.81 16Z"></path>
    <path fill='#6E6E6E' d="M6.56 15L6.94 15L7.31 15L7.31 14.31L7.31 13.63L6.94 13.63L6.56 13.63L6.56 14.31L6.56 15Z"></path>
    <path fill='#6E6E6E' d="M8.38 16L8.72 16L9.06 16L9.06 14.81L9.06 13.63L8.72 13.63L8.38 13.63L8.38 14.81L8.38 16Z"></path>
    <path fill='#6E6E6E' d="M10.06 15L10.41 15L10.75 15L10.75 14.31L10.75 13.63L10.41 13.63L10.06 13.63L10.06 14.31L10.06 15Z"></path>
    <path fill='#6E6E6E' d="M11.81 16L12.19 16L12.56 16L12.56 14.81L12.56 13.63L12.19 13.63L11.81 13.63L11.81 14.81L11.81 16Z"></path>

    <!--right pins-->
    <path fill='#6E6E6E' d="M13.56 3.81L14.25 3.81L14.94 3.81L14.94 3.47L14.94 3.13L14.25 3.13L13.56 3.13L13.56 3.47L13.56 3.81Z"></path>
    <path fill='#6E6E6E' d="M13.56 5.56L14.78 5.56L16 5.56L16 5.19L16 4.81L14.78 4.81L13.56 4.81L13.56 5.19L13.56 5.56Z"></path>
    <path fill='#6E6E6E' d="M13.56 7.31L14.25 7.31L14.94 7.31L14.94 6.97L14.94 6.63L14.25 6.63L13.56 6.63L13.56 6.97L13.56 7.31Z"></path>
    <path fill='#6E6E6E' d="M13.56 9.13L14.78 9.13L16 9.13L16 8.75L16 8.38L14.78 8.38L13.56 8.38L13.56 8.75L13.56 9.13Z"></path>
    <path fill='#6E6E6E' d="M13.56 12.56L14.78 12.56L16 12.56L16 12.22L16 11.88L14.78 11.88L13.56 11.88L13.56 12.22L13.56 12.56Z"></path>
    <path fill='#6E6E6E' d="M13.56 10.81L14.25 10.81L14.94 10.81L14.94 10.44L14.94 10.06L14.25 10.06L13.56 10.06L13.56 10.44L13.56 10.81Z"></path>

    <!--left pins-->
    <path fill='#6E6E6E' d="M0 4.19L1.22 4.19L2.44 4.19L2.44 3.84L2.44 3.5L1.22 3.5L0 3.5L0 3.84L0 4.19Z"></path>
    <path fill='#6E6E6E' d="M1 5.88L1.72 5.88L2.44 5.88L2.44 5.53L2.44 5.19L1.72 5.19L1 5.19L1 5.53L1 5.88Z"></path>
    <path fill='#6E6E6E' d="M0 7.69L1.22 7.69L2.44 7.69L2.44 7.31L2.44 6.94L1.22 6.94L0 6.94L0 7.31L0 7.69Z"></path>
    <path fill='#6E6E6E' d="M1 9.38L1.72 9.38L2.44 9.38L2.44 9.06L2.44 8.75L1.72 8.75L1 8.75L1 9.06L1 9.38Z"></path>
    <path fill='#6E6E6E' d="M0 11.19L1.22 11.19L2.44 11.19L2.44 10.81L2.44 10.44L1.22 10.44L0 10.44L0 10.81L0 11.19Z"></path>
    <path fill='#6E6E6E' d="M1 12.94L1.72 12.94L2.44 12.94L2.44 12.59L2.44 12.25L1.72 12.25L1 12.25L1 12.59L1 12.94Z"></path>


    <!--main body

    <path fill='#6E6E6E' d="M3.13 12.94L8 12.94L12.88 12.94L12.88 8.03L12.88 3.13L8 3.13L3.13 3.13L3.13 8.03L3.13 12.94ZM12.18 7.91L10.04 10.08L7.91 12.26L5.86 12.25L3.81 12.25L3.81 8.03L3.81 3.81L8 3.81L12.19 3.81L12.19 5.86L12.18 7.91Z"></path>

    -->
    <rect width="10" height="10" x="3" y="3" fill="#6E6E6E"/>
    <defs>
        <linearGradient id="grad2" x1="20%" y1="20%" x2="80%" y2="80%" >
            <stop offset="0%" style="stop-color:rgb(86,253,20);stop-opacity:1" />
            <stop offset="100%" style="stop-color:rgb(7,114,233);stop-opacity:1" />
        </linearGradient>
    </defs>
    <rect width="8" height="8" x="4" y="4" fill="url(#grad2)"  />

</svg>